<?xml version="1.0" encoding="utf-8"?>
<!-- Generator: Adobe Illustrator 16.0.0, SVG Export Plug-In . SVG Version: 6.00 Build 0)  -->
<!DOCTYPE svg PUBLIC "-//W3C//DTD SVG 1.0//EN" "http://www.w3.org/TR/2001/REC-SVG-20010904/DTD/svg10.dtd">
<svg version="1.0" id="Layer_1" xmlns="http://www.w3.org/2000/svg" xmlns:xlink="http://www.w3.org/1999/xlink" x="0px" y="0px"
	 width="100px" height="100px" viewBox="0 0 100 100" enable-background="new 0 0 100 100" xml:space="preserve">
<path d="M83.333,14.999v-5H77.5c-3.682,0-6.667,2.985-6.667,6.667v3.333h-4.166v5h4.166v8.333h5v-8.333H80v-5h-4.167v-5H83.333z"/>
<path d="M42.5,71.664v-6.666h4.167v-5H42.5v-6.666h-5v6.666h-4.167v5H37.5v5c0,3.686,2.985,6.666,6.667,6.666H50v-5H42.5z"/>
<path d="M90,69.998v-20h-6.667v-6.667c0-3.665-3.001-6.667-6.666-6.667H53.333V23.332c0-3.665-3.001-6.667-6.667-6.667h-30
	C13,16.665,10,19.667,10,23.332v20c0,3.666,3,6.667,6.667,6.667v30H10v3.334c0,3.682,2.987,6.666,6.667,6.666l66.667,0.004
	c3.682,0,6.667-2.986,6.667-6.668v-3.336h-6.667v-10H90z M29.167,28.332l8.333,5l-8.333,5V28.332z M76.667,49.999h-20v26.666
	l6.666-6.666h13.334v10H63.333L60,83.332H40l-3.333-3.334H23.333v-30h23.333c3.666,0,6.667-3.001,6.667-6.667h23.334V49.999z"/>
</svg>
