<?xml version="1.0" encoding="iso-8859-1"?>
<!-- Generator: Adobe Illustrator 19.0.0, SVG Export Plug-In . SVG Version: 6.00 Build 0)  -->
<svg version="1.1" id="Layer_1" xmlns="http://www.w3.org/2000/svg" xmlns:xlink="http://www.w3.org/1999/xlink" x="0px" y="0px"
	 viewBox="0 0 512 512" style="enable-background:new 0 0 512 512;" xml:space="preserve">
<g>
	<g>
		<path d="M238.345,70.621H8.828C3.953,70.621,0,74.573,0,79.448v353.103c0,4.875,3.953,8.828,8.828,8.828h229.517
			c4.875,0,8.828-3.953,8.828-8.828V79.448C247.172,74.573,243.22,70.621,238.345,70.621z M229.517,423.724H17.655V88.276h211.862
			V423.724z"/>
	</g>
</g>
<g>
	<g>
		<path d="M503.172,70.621H273.655c-4.875,0-8.828,3.953-8.828,8.828v353.103c0,4.875,3.953,8.828,8.828,8.828h229.517
			c4.875,0,8.828-3.953,8.828-8.828V79.448C512,74.573,508.047,70.621,503.172,70.621z M494.345,423.724H282.483V88.276h211.862
			V423.724z"/>
	</g>
</g>
<g>
	<g>
		<path d="M123.338,123.932C99,123.932,79.2,143.733,79.2,168.07c0,24.337,19.8,44.138,44.138,44.138s44.138-19.8,44.138-44.138
			C167.476,143.733,147.677,123.932,123.338,123.932z M123.338,194.553c-14.604,0-26.483-11.88-26.483-26.483
			c0-14.602,11.879-26.483,26.483-26.483s26.483,11.88,26.483,26.483C149.821,182.672,137.942,194.553,123.338,194.553z"/>
	</g>
</g>
<g>
	<g>
		<path d="M388.166,123.932c-24.338,0-44.138,19.801-44.138,44.138c0,24.337,19.8,44.138,44.138,44.138s44.138-19.8,44.138-44.138
			C432.304,143.733,412.504,123.932,388.166,123.932z M388.166,194.553c-14.604,0-26.483-11.88-26.483-26.483
			c0-14.602,11.879-26.483,26.483-26.483c14.603,0,26.483,11.88,26.483,26.483C414.649,182.672,402.769,194.553,388.166,194.553z"/>
	</g>
</g>
<g>
	<g>
		<path d="M123.338,247.518c-38.94,0-70.621,31.68-70.621,70.621c0,38.941,31.681,70.621,70.621,70.621s70.621-31.68,70.621-70.621
			C193.959,279.198,162.278,247.518,123.338,247.518z M123.338,371.104c-29.205,0-52.966-23.76-52.966-52.966
			c0-29.206,23.761-52.966,52.966-52.966c29.205,0,52.966,23.76,52.966,52.966C176.304,347.345,152.543,371.104,123.338,371.104z"/>
	</g>
</g>
<g>
	<g>
		<path d="M388.166,247.518c-38.94,0-70.621,31.68-70.621,70.621c0,38.941,31.681,70.621,70.621,70.621s70.621-31.68,70.621-70.621
			C458.787,279.198,427.106,247.518,388.166,247.518z M388.166,371.104c-29.205,0-52.966-23.76-52.966-52.966
			c0-29.206,23.761-52.966,52.966-52.966c29.205,0,52.966,23.76,52.966,52.966C441.131,347.345,417.371,371.104,388.166,371.104z"/>
	</g>
</g>
<g>
</g>
<g>
</g>
<g>
</g>
<g>
</g>
<g>
</g>
<g>
</g>
<g>
</g>
<g>
</g>
<g>
</g>
<g>
</g>
<g>
</g>
<g>
</g>
<g>
</g>
<g>
</g>
<g>
</g>
</svg>
